<svg xmlns="http://www.w3.org/2000/svg" width="145" height="130" viewBox="0 0 145 130">
  <metadata><?xpacket begin="﻿" id="W5M0MpCehiHzreSzNTczkc9d"?>
<x:xmpmeta xmlns:x="adobe:ns:meta/" x:xmptk="Adobe XMP Core 5.6-c142 79.160924, 2017/07/13-01:06:39        ">
   <rdf:RDF xmlns:rdf="http://www.w3.org/1999/02/22-rdf-syntax-ns#">
      <rdf:Description rdf:about=""/>
   </rdf:RDF>
</x:xmpmeta>
                                                                                                    
                                                                                                    
                                                                                                    
                                                                                                    
                                                                                                    
                                                                                                    
                                                                                                    
                                                                                                    
                                                                                                    
                                                                                                    
                                                                                                    
                                                                                                    
                                                                                                    
                                                                                                    
                                                                                                    
                                                                                                    
                                                                                                    
                                                                                                    
                                                                                                    
                                                                                                    
                           
<?xpacket end="w"?></metadata>
<defs>
    <style>
      .cls-1 {
        fill: #7b7b7b;
        fill-rule: evenodd;
      }
    </style>
  </defs>
  <path id="data" class="cls-1" d="M27.214,47.636a8.058,8.058,0,0,1-4.55-.97,4.63,4.63,0,0,1-1.476-3.878V9.279H20.573q-2.644,4.06-8.546,4.12v0.727h3.689q2.643,0,2.644,2.909V42.789q0,2.727-1.414,3.818-1.353,1.03-4.55,1.03v0.969H27.214V47.636Zm38.243-26.9a19.452,19.452,0,0,0-4.3-7.635,11.4,11.4,0,0,0-8.485-3.878q-9.469,0-12.973,11.634a29.416,29.416,0,0,0-1.045,8.241,30.509,30.509,0,0,0,1.23,9.089,20.211,20.211,0,0,0,4.488,7.7,11.345,11.345,0,0,0,8.239,3.636q7.009,0,10.821-6.726a24.463,24.463,0,0,0,3.2-12.6,31.273,31.273,0,0,0-1.168-9.453h0ZM61.644,42.3Q58.753,48,53.713,48q-6.087,0-9.591-7.15a28.516,28.516,0,0,1-.553-23.268q2.889-6.786,7.993-6.787,6.394,0,9.837,8.241a34.515,34.515,0,0,1,2.521,13.27,22.028,22.028,0,0,1-2.275,10h0Zm22.069,77.7q-4.263,0-6.066-1.292-1.968-1.536-1.967-5.171V68.863H74.86q-3.526,5.414-11.395,5.494v0.97h4.919q3.524,0,3.525,3.878v34.338q0,3.636-1.885,5.09-1.8,1.372-6.066,1.373V121.3H83.713v-1.293ZM135.2,105.058a4.172,4.172,0,0,1-3.689,1.535h-5.738V68.782h-1.886L99.125,108.048v2.1h22.626V121.3h4.017v-11.15l8.771,0.081,1.558-5.171h-0.9Zm-32.873,1.7,19.429-31.59v31.59H102.322ZM8.555,90.794l-0.526-.85L130.445,14.206l0.526,0.85Z"/>
</svg>
