<svg xmlns="http://www.w3.org/2000/svg" width="124.15" height="62.656" viewBox="0 0 124.15 62.656">
  <metadata><?xpacket begin="﻿" id="W5M0MpCehiHzreSzNTczkc9d"?>
<x:xmpmeta xmlns:x="adobe:ns:meta/" x:xmptk="Adobe XMP Core 5.6-c138 79.159824, 2016/09/14-01:09:01        ">
   <rdf:RDF xmlns:rdf="http://www.w3.org/1999/02/22-rdf-syntax-ns#">
      <rdf:Description rdf:about=""/>
   </rdf:RDF>
</x:xmpmeta>
                                                                                                    
                                                                                                    
                                                                                                    
                                                                                                    
                                                                                                    
                                                                                                    
                                                                                                    
                                                                                                    
                                                                                                    
                                                                                                    
                                                                                                    
                                                                                                    
                                                                                                    
                                                                                                    
                                                                                                    
                                                                                                    
                                                                                                    
                                                                                                    
                                                                                                    
                                                                                                    
                           
<?xpacket end="w"?></metadata>
<defs>
    <style>
      .cls-1 {
        fill: #7b7b7b;
        fill-rule: evenodd;
      }
    </style>
  </defs>
  <path id="name02" class="cls-1" d="M1185.12,565.78h-28.8v4.08h-1.2v-42.9h12.6a51.472,51.472,0,0,0,3.9-9l1.14,0.36a50.676,50.676,0,0,1-3.72,8.64h17.22v42.9h-1.14v-4.08ZM1144.8,530.2h7.98v1.2h-7.86c2.46,5.1,5.34,11.7,8.7,19.74l-1.08.48c-2.1-5.22-4.68-11.04-7.74-17.58V570.76h-1.14v-36.3a100.128,100.128,0,0,1-9.48,24.239l-1.02-.54a98.6,98.6,0,0,0,10.02-26.759h-8.64v-1.2h9.12V519.042h1.14V530.2Zm11.52,15h28.8V528.162h-28.8V545.2Zm0,1.14V564.58h28.8V546.341h-28.8Zm84.8-31.181h16.2v1.44h-16.2v7.776h-1.44V516.6h-25.35v7.776h-1.44V516.6h-16.2v-1.44h16.2V508.1h1.44v7.057h25.35V508.1h1.44v7.057Zm-13.4,5.688v10.225h29.6v1.368h-37.37a75.107,75.107,0,0,1-.65,10.225h32.04c0,10.009-.79,16.921-2.45,20.738a8.925,8.925,0,0,1-8.85,5.76c-2.67,0-6.99-.216-13.11-0.72l0.15-1.368q8.1,0.648,12.96.648c4.6,0,7.05-1.656,8.64-8.641a77.175,77.175,0,0,0,1.22-14.977h-30.89c-2.09,11.881-8.06,19.442-19.87,25.994l-0.72-1.224c14.9-8.281,20.09-17.713,20.09-36.435h-21.82v-1.368h29.59V520.848h1.44Z" transform="translate(-1133.16 -508.094)"/>
</svg>
