<svg xmlns="http://www.w3.org/2000/svg" width="124.437" height="61.375" viewBox="0 0 124.437 61.375">
  <metadata><?xpacket begin="﻿" id="W5M0MpCehiHzreSzNTczkc9d"?>
<x:xmpmeta xmlns:x="adobe:ns:meta/" x:xmptk="Adobe XMP Core 5.6-c138 79.159824, 2016/09/14-01:09:01        ">
   <rdf:RDF xmlns:rdf="http://www.w3.org/1999/02/22-rdf-syntax-ns#">
      <rdf:Description rdf:about=""/>
   </rdf:RDF>
</x:xmpmeta>
                                                                                                    
                                                                                                    
                                                                                                    
                                                                                                    
                                                                                                    
                                                                                                    
                                                                                                    
                                                                                                    
                                                                                                    
                                                                                                    
                                                                                                    
                                                                                                    
                                                                                                    
                                                                                                    
                                                                                                    
                                                                                                    
                                                                                                    
                                                                                                    
                                                                                                    
                                                                                                    
                           
<?xpacket end="w"?></metadata>
<defs>
    <style>
      .cls-1 {
        fill: #7b7b7b;
        fill-rule: evenodd;
      }
    </style>
  </defs>
  <path id="name01" class="cls-1" d="M703.116,399.376v19.01h16.922v1.44H689.723v20.81h22.538V423.354h1.44v23.258h-1.44v-4.536H665.745v4.536h-1.44V423.354h1.44v17.282h22.538v-20.81H657.968v-1.44h11.593V389.439q26.031,0,41.836-4.176l0.36,1.368c-10.441,2.736-23.978,4.177-40.755,4.249v7.056h45.507v1.44H703.116Zm-1.44,19.01v-19.01H671v19.01h30.674Zm53.923-21.4v5.28h23.519v12.059h-1.2V403.462H755.6v14.4h-1.2v-14.4H732.08v10.859h-1.2V402.262H754.4v-5.28H732.68v-1.2h44.638v1.2H755.6Zm-5.28,11.759H736.16v-1.2h14.159v1.2Zm23.519,0H759.679v-1.2h14.159v1.2Zm-23.519,6.18H736.16v-1.2h14.159v1.2Zm23.519,0H759.679v-1.2h14.159v1.2Zm-32.339,7.62h9.36v1.2h-8.58a120.227,120.227,0,0,1,9.66,11.1l-0.96.72a100.046,100.046,0,0,0-9.48-10.979V445.76h-1.2V424.881A47.667,47.667,0,0,1,728.36,439.76l-0.78-.9a47.74,47.74,0,0,0,11.939-15.119H729.74v-1.2H740.3v-4.98h1.2v4.98Zm25.259,0h13.5v1.2H767.6c3.06,5.579,8.04,10.859,14.82,15.959l-0.72.96q-10.17-7.65-14.94-16.019V445.76h-1.2V424.581c-3.66,6.3-9.239,12.239-16.679,17.819l-0.72-.9c7.44-5.64,12.96-11.58,16.559-17.759H754.1v-1.2h11.459v-4.98h1.2v4.98Z" transform="translate(-657.969 -385.25)"/>
</svg>
